<svg id="line" height="512" viewBox="0 0 64 64" width="512" xmlns="http://www.w3.org/2000/svg"><path d="m14 58h19a5 5 0 0 0 10 0h19a1 1 0 0 0 .57-1.82s-5.5-4.06-5.57-16.18v-4a18.9 18.9 0 0 0 -15-18.55v-.45a4 4 0 1 0 -8 0v.44a18.94 18.94 0 0 0 -15 18.56v4c-.07 12.12-5.52 16.14-5.57 16.18a1 1 0 0 0 .57 1.82zm26-40.89c-.1 0-1.06-.09-1.82-.1s-1.83.06-2.18.1a2 2 0 1 1 4-.11zm-2 5.89a1 1 0 0 1 0-2 15 15 0 0 1 15 15 1 1 0 0 1 -2 0 13 13 0 0 0 -13-13z" fill="#c4a2fc"/><g fill="#151a6a"><path d="m50.64 21.23-7.64-6.37v-12.86a1 1 0 0 0 -1-1h-32a1 1 0 0 0 -1 1v12.86c-1.74 1.45-7.53 6.27-7.68 6.41a1 1 0 0 0 -.32.73v26a3 3 0 0 0 3 3h44a3 3 0 0 0 3-3v-26a1 1 0 0 0 -.36-.77zm-2.45.56-5.19 2.59v-6.91zm-37.19-18.79h30v22.38l-15 7.5-15-7.5zm-2 14.47v6.91l-5.19-2.59zm39 31.53h-44a1 1 0 0 1 -1-1v-24.38l22.55 11.27a1 1 0 0 0 .9 0l22.55-11.27v24.38a1 1 0 0 1 -1 1z"/><path d="m18 15h16a1 1 0 0 0 0-2h-16a1 1 0 0 0 0 2z"/><path d="m18 23h16a1 1 0 0 0 0-2h-16a1 1 0 0 0 0 2z"/><path d="m15 43h-9a1 1 0 0 1 0-2h9a1 1 0 0 1 0 2z"/><path d="m21 47h-15a1 1 0 0 1 0-2h15a1 1 0 0 1 0 2z"/></g></svg>