<svg height="512" viewBox="0 0 64 64" width="512" xmlns="http://www.w3.org/2000/svg"><g id="smartphone-email-mail-letter-document"><rect fill="#46f8ff" height="58" rx="2" width="32" x="3" y="3"/><path d="m35 5v54a2.006 2.006 0 0 1 -2 2h-4a2.006 2.006 0 0 0 2-2v-54a2.006 2.006 0 0 0 -2-2h4a2.006 2.006 0 0 1 2 2z" fill="#00b6bd"/><path d="m30 3-1 4h-20l-1-4z" fill="#ff7956"/><path d="m30 3-1 4h-4l1-4z" fill="#ff5023"/><path d="m61 37v20h-26-4v-20l15 10z" fill="#c0ab91"/><path d="m61 37-15 10-15-10h4z" fill="#fee9ab"/><path d="m22 11h26v18h-26z" fill="#fee9ab"/><path d="m44 11h4v18h-4z" fill="#ffd422"/><path d="m61 37v20h-4v-17.33z" fill="#a78966"/><path d="m61 37-4 2.67v-2.67z" fill="#ffd422"/><path d="m61 36h-25v-6h12a1 1 0 0 0 1-1v-18a1 1 0 0 0 -1-1h-12v-5a3.009 3.009 0 0 0 -3-3h-28a3.009 3.009 0 0 0 -3 3v54a3.009 3.009 0 0 0 3 3h28a3.009 3.009 0 0 0 3-3v-1h25a1 1 0 0 0 1-1v-20a1 1 0 0 0 -1-1zm-3.3 2-11.7 7.8-11.7-7.8zm-10.7-26v16h-24v-16zm-18.28-8-.5 2h-18.44l-.5-2zm5.28 55a1 1 0 0 1 -1 1h-28a1 1 0 0 1 -1-1v-54a1 1 0 0 1 1-1h2.22l.81 3.24a1 1 0 0 0 .97.76h20a1 1 0 0 0 .97-.76l.81-3.24h2.22a1 1 0 0 1 1 1v5h-12a1 1 0 0 0 -1 1v18a1 1 0 0 0 1 1h12v6h-3a1 1 0 0 0 -1 1v20a1 1 0 0 0 1 1h3zm26-3h-28v-17.13l13.45 8.96a.975.975 0 0 0 1.1 0l13.45-8.96z"/><path d="m14 54h2v2h-2z"/><path d="m18 54h2v2h-2z"/><path d="m22 54h2v2h-2z"/><path d="m26 54h2v2h-2z"/><path d="m37 52h2v2h-2z"/><path d="m41 52h2v2h-2z"/><path d="m45 52h2v2h-2z"/><path d="m49 52h2v2h-2z"/><path d="m53 52h2v2h-2z"/><path d="m51 18h2v2h-2z"/><path d="m56 21h2v-2a1 1 0 0 0 -1-1h-2v2h1z"/><path d="m56 23h2v2h-2z"/><path d="m56 27h2v2h-2z"/><path d="m17 18h2v2h-2z"/><path d="m13 18h2v2h-2z"/><path d="m8 19v2h2v-1h1v-2h-2a1 1 0 0 0 -1 1z"/><path d="m8 24h2v2h-2z"/><path d="m8 28h2v2h-2z"/><path d="m8 32h2v2h-2z"/><path d="m8 36h2v2h-2z"/><path d="m56 31h2v2h-2z"/><path d="m10 53h-2v2a1 1 0 0 0 1 1h2v-2h-1z"/><path d="m8 40h2v2h-2z"/><path d="m8 44h2v2h-2z"/><path d="m8 48h2v2h-2z"/><path d="m25 15h7v2h-7z"/><path d="m25 19h7v2h-7z"/><path d="m25 23h7v2h-7z"/><path d="m38 15h7v2h-7z"/><path d="m38 19h7v2h-7z"/><path d="m38 23h7v2h-7z"/></g></svg>