<?xml version="1.0" encoding="iso-8859-1"?>
<!-- Generator: Adobe Illustrator 16.0.0, SVG Export Plug-In . SVG Version: 6.00 Build 0)  -->
<!DOCTYPE svg PUBLIC "-//W3C//DTD SVG 1.1//EN" "http://www.w3.org/Graphics/SVG/1.1/DTD/svg11.dtd">
<svg version="1.1" id="Capa_1" xmlns="http://www.w3.org/2000/svg" xmlns:xlink="http://www.w3.org/1999/xlink" x="0px" y="0px"
	 width="30.695px" height="30.696px" viewBox="0 0 30.695 30.696" style="enable-background:new 0 0 30.695 30.696;"
	 xml:space="preserve">
<g>
	<g>
		<path d="M28.527,18.524H2.169L0,28.353h30.695L28.527,18.524z M12.317,27l0.44-2.002h5.179L18.376,27H12.317z"/>
		<path d="M28.458,17.903v-6.032h-0.001V2.342h-9.891h-6.439h-9.89v9.529v6.032H28.458L28.458,17.903z M26.593,16.347H4.103V4.208
			h8.422h5.646h8.423L26.593,16.347L26.593,16.347z"/>
		<polygon points="5.862,8.463 8.739,8.463 8.739,12.738 15.348,14.682 21.566,12.738 21.566,8.463 22.966,8.463 22.966,11.494 
			22.266,11.494 22.266,14.06 24.441,14.06 24.441,11.494 23.977,11.494 23.977,8.463 24.831,8.463 24.831,7.151 5.862,7.151 		"/>
	</g>
</g>
<g>
</g>
<g>
</g>
<g>
</g>
<g>
</g>
<g>
</g>
<g>
</g>
<g>
</g>
<g>
</g>
<g>
</g>
<g>
</g>
<g>
</g>
<g>
</g>
<g>
</g>
<g>
</g>
<g>
</g>
</svg>
